/* XPM */
static char *bitcoin16_xpm[] = {
/* columns rows colors chars-per-pixel */
"16 16 97 2",
"   c Black",
".  c #EBF5F5",
"+  c #F0F9FB",
"*  c #F0F9FC",
"W  c #F0F9FD",
"]  c #E1E7E9",
"J  c #DCE0E3",
"D  c #CDCED0",
"#  c #F0F0F0",
"$  c #FFFFFF",
"k  c #EEF6F9",
"!  c #D0D2D4",
"H  c #C6C7C9",
"[  c #ECF6FA",
"(  c #E7EFF2",
":  c #E2E8EB",
"T  c #CED2D5",
"Y  c #C9CBCD",
"a  c #CECFD1",
"X. c #EFFAFA",
"i  c #EFFAFB",
".. c #EFF7FB",
"1  c #DBE1E4",
"4  c #E0E5E7",
"v  c #D6DADD",
"N  c #75474C",
"-  c #EDF7FA",
"j  c #E3E9EC",
"K  c #CFD3D6",
"I  c #CFD0D2",
"%  c #F0F8FA",
"&  c #F0F8FB",
")  c #E6EDF0",
"=  c #F0F8FC",
",  c #F0F8FD",
"s  c #C8C9CB",
"o. c #EEFBFB",
"r  c #C8C9CC",
"u  c #E3E3FF",
"Q  c #EEF8FA",
"l  c #EEF8FB",
"E  c #D5DBDE",
"3  c #E4EAED",
"A  c #D0D4D7",
"6  c #ADAFB2",
"f  c #D0D1D3",
"~  c #D0D1D4",
"L  c #ECF5F7",
"n  c #ECF5F8",
"@  c #F1F9FB",
"8  c #F1F9FC",
"Z  c #E7EEF1",
"5  c #D8DCDF",
"/  c #D3D5D7",
"y  c #EFF9FB",
" . c #EFF9FC",
"b  c #E0E7EA",
"t  c #E5EBEE",
"'  c #BDBFC1",
"U  c #B3B4B7",
"e  c #D1D2D4",
"{  c #D9DDE0",
"c  c #989799",
"P  c #D4D6D8",
"w  c #CACBCD",
"O. c #F0FAFA",
"O  c #F0FAFC",
"X  c #F0FAFD",
"p  c #EBF3F6",
">  c #E1E8EA",
"}  c #D2D6D9",
"g  c #C3C4C5",
"q  c #B4B5B8",
"_  c #C3C4C7",
"x  c #C8C8CA",
"7  c #D0D6D9",
"0  c #D5DADD",
"G  c #C3BBBE",
"V  c #CBCCCE",
"F  c #CAB0B4",
"B  c #B4A3A6",
"2  c #ECF4F7",
"<  c #E2E9EB",
"S  c #B5B6B8",
"z  c #D8DBDE",
"h  c #C4C5C7",
"d  c #C9C9CB",
"9  c #F4FFFF",
"o  c #EFF8FB",
";  c #EFF8FC",
"R  c #D6DBDE",
"|  c #DBDFE2",
"M  c #CCCDCE",
"^  c #C2C2C4",
"m  c #CFD4D6",
"C  c #CFD4D7",
"`  c #DEE3E5",
/* pixels */
"        . X o o O + @ #         ",
"    $ % & * * * * * * = -       ",
"  $ ; * * * * * * : > * * +     ",
"  , * < 1 2 3 4 5 6 7 * * * 8   ",
"9 + * 0 q w e e e r t * * * y u ",
"i * * p a s d f g h j * * * * k ",
"l * * * z x e c s f v o * * b n ",
"o * * o m M e N B V C 2 * * 0 Z ",
"o * * o A S D F G H J * * * K L ",
"o * * & P I h U Y e e T 0 R E W ",
"Q * * o ! ~ e ^ e f / o ( ) * & ",
"$ ; * & ! f e _ e a P * * * y $ ",
"  l * * ` a e ' e D ] * * O [   ",
"    O * o 3 { } | ) * * *  .    ",
"      ..= * * * * * * o X.      ",
"        $ o...& l & O.          "
};
