/* XPM */
static char *bitcoin32_xpm[] = {
/* columns rows colors chars-per-pixel */
"32 32 197 2",
"   c Black",
"J. c #EBF8F8",
" . c #757173",
"g  c #C5C6C9",
";  c #F0F9FB",
" X c #E6EEF0",
"|  c #231F1F",
"=  c #F0F9FC",
"S. c #E6EEF1",
"+  c #F0F9FD",
"R. c #E1E7EA",
"6  c #C3C6C8",
"W  c #DCE0E2",
"I. c #DBFFFF",
"N  c #D2D5D8",
"=. c #BEBFC1",
"{. c #F5FAFF",
"!  c #B4B4B6",
"w. c #CDCED0",
"<  c #EEF9F9",
"1  c #FFFFFF",
"). c #EEF9FC",
"P  c #EEF6F9",
"v. c #EEF6FB",
"M  c #B2B4B6",
"]. c #D5D9DC",
"/. c #C1C3C5",
"m. c #CBCED1",
"s. c #DADDE0",
"q. c #C6C7CA",
"%X c #F1FAFA",
"@X c #ECF6F9",
"l. c #E7EFF2",
"k. c #D8DDE0",
"G  c #B5B5B7",
"C  c #CECFD1",
"*X c #EFFAFA",
"o. c #E0E8EB",
"*  c #EFF7F9",
"[. c #E5ECEE",
"t  c #EFF7FA",
"~. c #EFF7FB",
"#X c #EFF7FC",
"c. c #DBE1E4",
".. c #C7CBCD",
"(. c #E0E5E8",
"q  c #B3B5B7",
"F  c #B8B9BB",
"XX c #EFF4F9",
"3. c #C7C8CA",
"b. c #BDBDBF",
"&  c #CCCCCC",
"X. c #D9E1E3",
"6. c #E8F0F3",
"Z  c #E3E9EB",
"9. c #E3E9EC",
"V. c #CFD3D6",
"N. c #C5C8CB",
"g. c #BBBDBF",
"E  c #D4D7D9",
"a  c #DEE2E5",
"r. c #C0C1C3",
"3  c #EAEAFF",
"U  c #CFD0D2",
"'  c #EBF4F7",
"9  c #F0F8FB",
"@  c #F0F8FC",
"=X c #DFEFEF",
"T. c #F2F2FF",
"u  c #BEC1C3",
"h  c #B4B6B9",
"p. c #C3C5C8",
")  c #AFAFB0",
"Q  c #AFAFB1",
"K  c #DCDFE2",
"n  c #B9BABD",
"f  c #D2D4D6",
"oX c #F3FFFF",
"L  c #E9F4F4",
"2  c #EEF8FA",
"#  c #EEF8FB",
"7. c #E9F1F4",
"|. c #DFE6E9",
"}  c #585657",
"b  c #ADAFB1",
"y. c #BCBEC0",
"f. c #CBCDCF",
"c  c #B2B3B6",
"/  c #9E9D9F",
"T  c #B7B7B8",
"m  c #D0D1D3",
"G. c #D0D1D4",
"&X c #ECF8FB",
"<. c #D0CED0",
"r  c #ECF5F7",
".X c #ECF5F8",
"2. c #CCA8AE",
"Q. c #E7EEF0",
"B  c #F1F9FC",
"j. c #D3D8DB",
"v  c #A6A8AB",
"P. c #D8DCDE",
"D  c #C4C6C8",
"^. c #BABBBE",
"A. c #B0B0B2",
"I  c #D3D5D7",
"e. c #C9CACC",
"K. c #C9CACD",
"1. c #C45965",
"+X c #EFF9FB",
"z  c #EFF9FC",
"a. c #EFF9FD",
"[  c #EAF2F5",
"p  c #E5EBEE",
"i  c #D1D5D8",
"_. c #E0E4E7",
"h. c #D6D9DB",
"n. c #CCCED0",
"t. c #B3B4B7",
"H  c #A9A9AB",
"E. c #C2C3C5",
"`. c #C2C3C6",
"Z. c #B8B8BA",
"d  c #D1D2D4",
"l  c #EDF6F6",
":. c #EDF6F8",
"8. c #EDF6FA",
"$  c #EDF6FC",
"-. c #C5CACD",
"~  c #EDF6FF",
"w  c #A7A9AC",
">. c #B6B8BA",
"M. c #C5C7CA",
"0. c #BBBCBE",
"W. c #CACBCC",
"]  c #BBBCBF",
"J  c #CACBCD",
",  c #F0FAFC",
"-  c #F0FAFD",
"%. c #A68A8E",
"y  c #EBF3F6",
"`  c #E1E8EB",
";. c #D7DDE0",
":  c #F0F7FB",
"#. c #AFB1B3",
"B. c #C8CBCE",
"7  c #BEC0C2",
"U. c #D7DADC",
"x. c #BEC0C3",
"*. c #BB787F",
"8  c #EEF7F9",
"x  c #EEF7FA",
"O  c #EEF7FB",
"u. c #E9F0F3",
"S  c #DFE5E7",
"j  c #A8AAAD",
"(  c #676466",
"O. c #BCBDC0",
"s  c #D5D7D9",
"R  c #CBCCCE",
"@. c #D3DADC",
"4  c #ECF4F7",
"F. c #E2E9EC",
"C. c #E3FFFF",
"D. c #D8DEE1",
"V  c #C4C8CA",
">  c #F1F8FB",
"5  c #E7EDF0",
"OX c #F1F8FD",
"0  c #DDE2E5",
",. c #A6A7A9",
"e  c #B0B2B5",
"_  c #B5B6B8",
"4. c #C4C5C7",
"&. c #B31D2C",
"Y. c #C4C5C8",
"$X c #EAF4F4",
"X  c #EFF8FA",
"o  c #EFF8FB",
"z. c #E5EDF0",
"^  c #EFF8FC",
".  c #F6F6FF",
"i. c #D6DBDE",
"A  c #EAF1F8",
"k  c #B8BABD",
"$. c #BDBEBF",
"5. c #C7C9CC",
"Y  c #B3B3B5",
"L. c #CCCDCF",
"d. c #D1D1D3",
"%  c #EFEFEF",
"}. c #E8F1F4",
"{  c #EDF5F8",
"!. c #7F7F7F",
"+. c #E3EAED",
"H. c #D9DCDE",
"'. c #CFD1D3",
/* pixels */
"                      . X o O + O @ # $ %                       ",
"                & * o = = = = = = = = = - ; :                   ",
"              > o = = = = = = = = = = = = = = , <               ",
"          1 # = = = = = = = = = = = = = = = = = = 2             ",
"        3 @ = = = = = = = = = = = = = o 4 o = = = = 2 1         ",
"      1 o = = = = = = = = = = = = = 5 6 7 4 = = = = = 8         ",
"      @ = = 9 = 9 9 = = = 9 o o o 0 q w e r = = = = = = t       ",
"    > = = = y 7 u i p y a s d d f g h j k o = = = = = = # l     ",
"  1 z = = = x c v b n m d d d d d d m M N 9 = = = = = = = z     ",
"  B = = = = 9 V e C m d d d d d d d d m Z = = = = = = = = = A   ",
"  = = = = = = S D d d d d d d m F G H J K = = = = = = = = = O   ",
"L = = = = = = P I d U Y T R m m m d m m E 9 = = = = = = = = ;   ",
"t = = = = = = = W d Q U d d H ! d d d d f = = = = = = = = y = ~ ",
"^ = = = = = = = p d d d d d / ( ) d d C _ ` o = = = = = ' ] [ # ",
"X = = = = = = = { d d d d d } |  .d d C ..X.o.= = = = = o O.+., ",
"^ = = = = = = o @.#.$.d d d %.&.*.d d =.-.;.= = = = = = o O.+.X ",
"^ = = = = = = o :.>.,.m d d <.1.2.m 3.4.5.9 = = = = = = 6.] 7.8.",
"x = = = = = = = 9.0.,.n q.w.C e.r.t.y.d m u.= = = = = = i.p.o P ",
"a.= = = = = = = s.d d.f.O.t.e q g.J d d d h.j.k.l.o o z.x.c.= 8.",
"v.= = = = = = 9 h.d d d d d b.Q d d d d d n.m.M.] N.B.O.V.o z C.",
"1 o = = = = = o s m d d d d Z.A.d d d m m s.= o S.D.i.F.o = X   ",
"  ^ = = = = = = I J G.d d d m m d d d U R H.= = = = = = = = P   ",
"  J.= = = = = = I J d d d d 4.K.d d d C L.P.= = = = = = = = I.  ",
"    2 = = = = 9 U.w.U d d d y.Y.d d d J m W = = = = = = = t     ",
"    T.+ = = = = R.d w.d d d ] E.d d d W.m Q.= = = = = = o !.    ",
"      ~.z = = = o P.n.m d d ^./.d d U R (.= = = = = = = l       ",
"        ).= = = = P _.N C m g.`.m '.].[.= = = = = = ^ {.        ",
"          z ; = = = = o }.|.z. X9..X= = = = = = = + XX          ",
"            < O = = = = = = = = = = = = = = = = ; oX            ",
"              1 OXo = = = = = = = = = = = = +X#                 ",
"                  1 @X#Xo = = = = = = +X@ O                     ",
"                          $X%X&X: *X=X                          "
};
