/* XPM */
static char *bitcoin64_xpm[] = {
/* columns rows colors chars-per-pixel */
"64 64 375 2",
"9o c #6D6B6D",
"   c Black",
"V  c #E3E8EB",
"]  c #E6ECEF",
"r  c #E3F1F1",
"Lo c #E9F0F2",
"*  c #AAFFFF",
"x  c #E9F0F3",
"%  c #ECF7F7",
"l. c #EFF8F8",
"C. c #888688",
"0. c #ECF4F7",
"`. c #ECFAFA",
"y  c #EFF8FA",
"D  c #ECF7FA",
"s  c #EFF5FA",
"<  c #EFF8FB",
"s. c #ECF7FB",
"Q. c #211D1E",
"O  c #EFF8FC",
"0  c #EFF5FC",
"/. c #949395",
"M  c #A6A8AB",
"7X c #A9ACAF",
"%. c #B8BABC",
"K. c #BBBBBD",
"N. c #BEBFC0",
"rX c #BD2D3B",
"PX c #BEBFC1",
"WX c #BEBFC2",
"<. c #C7C8CA",
"zo c #C7C8CB",
"k  c #D0D1D3",
"]X c #D0D1D4",
"OX c #D3D5D7",
"n. c #D6D9DB",
"Vo c #DFDFDF",
"Co c #DCE1E3",
"to c #E8E8E8",
"&X c #E2E9EC",
"'. c #848384",
"fo c #EEF6F6",
"K  c #EBF2F5",
" O c #E8E8F3",
"_o c #EBF8F8",
"p  c #EEF9F9",
"Mo c #EBF5F8",
"-  c #EEF6F9",
"+O c #EBF5FA",
";  c #EEF6FA",
"e  c #EEF9FB",
".  c #E5FFFF",
"i  c #EEF6FB",
"wo c #EEF9FC",
"]. c #231F20",
"9X c #909091",
"vo c #EEF6FF",
"[o c #F1F1FF",
"r. c #ABABAC",
"E. c #ABABAD",
"+. c #A8AAAD",
".X c #B4B7BA",
"n  c #B7B8BB",
"e. c #C0C1C3",
"&. c #C0C1C4",
"P. c #C6C6C8",
"EX c #C6C6C9",
"5. c #C9CACC",
" o c #C6C9CC",
"G  c #C9CACD",
"U  c #CCCED0",
"JX c #C9CDD0",
"hX c #C24551",
"~  c #D2D3D5",
"*o c #CFD2D5",
"I  c #D2D6D8",
"Qo c #D2D6D9",
"(  c #D5D7D9",
"oo c #D5DADD",
"4X c #D8DEE0",
"F  c #DBDFE1",
"kX c #D8DEE1",
"2X c #DEE3E6",
"|. c #DEE6E8",
"ko c #E1E7E9",
"bo c #EAEAEA",
"5o c #E1E7EA",
"co c #E4EBEE",
"H. c #E7EFF2",
"xX c #868587",
"`X c #EAF3F6",
"}o c #F0F8F8",
"`o c #EDF7F9",
"$  c #EDF7FA",
"6  c #F0F8FB",
"+  c #EDF7FB",
"=. c #F0F8FC",
"=  c #F3FFFF",
"t. c #989799",
"W. c #2E2A2B",
"w. c #A4A4A6",
"1X c #A01D2A",
"YX c #AAACAF",
"To c #ADB0B3",
"<X c #B51E2C",
"xo c #B9BABD",
"^X c #BFBFBF",
"). c #B9BDBF",
"jX c #BCBEC0",
"~. c #555253",
"j. c #C2C3C5",
"ao c #C2C3C6",
"l  c #C5C7C9",
"o. c #CBCCCE",
"{X c #CBCCCF",
"Do c #CED0D2",
"4o c #CBCFD2",
"bX c #D1D1D3",
"Y  c #D1D4D6",
")  c #D4D5D8",
"I. c #D7D9DB",
"9. c #D7D9DC",
"w  c #E3E3E3",
"Q  c #DDE1E4",
"So c #D4EAEA",
"'X c #E0E5E8",
".. c #E3E9EB",
"M. c #E3E9EC",
"G. c #E6EDF0",
"go c #E9F4F4",
"v  c #ECF5F5",
"%o c #858385",
"f  c #E9F1F4",
"ro c #D4FFFF",
"oO c #EFF6FA",
"io c #EFF9FB",
">  c #EFF9FC",
"mX c #C77881",
"u  c #ECF5FF",
"yX c #A6A9AB",
"tX c #A9AAAC",
"0X c #AFAFB1",
"UX c #ACAEB1",
"NX c #B2B3B6",
"nX c #CDADB2",
"[  c #B5B7BA",
"$X c #BBBCBD",
"U. c #BBBCBF",
">. c #BEC0C2",
"*X c #BEC0C3",
"ho c #C4C5C8",
"Yo c #C7C9CB",
"C  c #CDCED0",
"f. c #D0D2D4",
"3. c #D6DADC",
"(o c #D6DADD",
"=o c #D9DEE1",
"R. c #DFE3E5",
"-o c #DCE2E5",
"j  c #E2E7E9",
" . c #E2E7EA",
"^o c #E2EAEC",
")o c #E2EAED",
"<o c #E5EBED",
"&  c #E5EEEE",
"B  c #E8EFF2",
"]o c #EEF7F7",
"No c #EBF3F6",
"Ho c #F1F8F8",
"OO c #EBF6F9",
"m. c #EEF7F9",
"X  c #EEF4F9",
"a  c #EEF7FA",
":  c #EEF7FB",
"@O c #EBFFFF",
"#X c #291C1E",
"$o c #F1F8FF",
"Z. c #EEF7FF",
">X c #592027",
"DX c #9C9EA0",
"3X c #9FA2A4",
",X c #9B1E2A",
"_  c #ABACAF",
"y. c #B1B1B3",
"(X c #AEB0B3",
"eX c #BF1E2E",
"0o c #BABABC",
"4. c #B7B9BC",
"BX c #BDBEC1",
"do c #C6C7C9",
"4  c #CCCCCC",
"z  c #CFD0D2",
"Go c #CFD0D3",
"LX c #D2D4D6",
"po c #D5D8DA",
"pX c #D8DCDF",
"k. c #DBE0E2",
"CX c #DBE0E3",
"_. c #DEE4E7",
"}. c #E7EDEF",
"Oo c #807E80",
"W  c #E7EDF0",
";. c #F0F0F0",
"D. c #838283",
"d  c #EAF1F4",
"A. c #EDF5F8",
"oX c #F0F9F9",
"-X c #EDF5FA",
"2. c #F0F9FB",
"!. c #221E1F",
"p. c #8C8B8D",
",  c #F0F9FC",
"SX c #8F8F91",
"cX c #929395",
">o c #F0F0FF",
"L. c #9E9D9F",
"c  c #AAAAAA",
"F. c #AAAAAB",
"IX c #AAAAAC",
"m  c #A7A9AC",
"aX c #B0B2B5",
"GX c #B6B7BA",
"g. c #BCBCBE",
"A  c #B9BBBE",
"|X c #BCBCBF",
"MX c #CEBCBF",
"[X c #BFC0C2",
"mo c #C2C4C6",
"8o c #C5C5C7",
":. c #C2C4C7",
"^. c #C8C9CB",
"1o c #C5C8CB",
"eo c #C8C9CC",
"#o c #C8CCCF",
"S. c #CECED0",
"Ro c #CED1D3",
"Bo c #D1D2D3",
"^  c #D1D2D4",
"X. c #D4D6D8",
"b  c #D4D6D9",
"VX c #D7DADC",
"~X c #D4D9DC",
"T  c #DADEE0",
"lo c #DADEE1",
"Eo c #DDE2E5",
"uo c #E0E6E8",
":o c #7F7F7F",
"!X c #E6EEF1",
"V. c #858485",
"$. c #ECF3F6",
"%X c #888889",
"{o c #EFFAFB",
"h  c #EFF7FA",
"#  c #EFF7FB",
"5  c #EFF7FC",
"AX c #979698",
"vX c #A3A3A5",
"{  c #A9ABAE",
"Z  c #AFB0B3",
"&o c #B5B5B7",
",. c #B2B4B7",
"a. c #B8B9BA",
"dX c #B8B9BB",
"TX c #B8B9BC",
"J  c #BBBDBF",
"jo c #BBBDC0",
"so c #C1C2C4",
"N  c #C1C2C5",
"}X c #C4C6C9",
"z. c #CACBCD",
"_X c #C7CACD",
"FX c #D0D0D2",
"~o c #CDD2D4",
")X c #D3D4D7",
"Uo c #D3D7DA",
"!  c #D6D8DA",
"7o c #D9DCDE",
".o c #D6DBDE",
"Wo c #D9DFE2",
"QX c #DCE0E2",
"*. c #DCE0E3",
"7. c #E2E8EA",
",o c #7B797B",
"8  c #E5F2F2",
"qX c #AE7279",
"S  c #E8F0F2",
"-. c #E8F3F3",
"zX c #EBF4F6",
"P  c #EBF7F7",
"T. c #E2EBF5",
"qo c #EEF5F8",
"1  c #EEF8FA",
"3  c #EEFBFB",
"5X c #EEF5FA",
"9  c #EEF8FB",
"iX c #F1F9FC",
"6o c #EEF8FC",
"2  c #F1F9FD",
"@X c #261F20",
"8X c #8D8E90",
"[. c #262223",
"x. c #939395",
"c. c #999899",
"h. c #AEAEAF",
"`  c #ABADAF",
"sX c #AEAEB0",
"H  c #ABADB0",
"8. c #B4B6B8",
"i. c #B7B7B9",
"gX c #BF2534",
"q. c #BABBBC",
"HX c #BABBBE",
"O. c #BDBFC1",
"2o c #BDBFC2",
":X c #C3C4C6",
"'  c #C3C4C7",
"fX c #CFC5C8",
"6X c #C6CBCD",
"RX c #CCCDCF",
"+o c #C9CCCF",
"Fo c #CCCDD0",
"Xo c #CCD0D2",
";o c #CCD0D3",
"B. c #6B696B",
"t  c #DBDBDB",
"=X c #D5D9DC",
"6. c #D8DADD",
"/o c #D8DDDF",
"XX c #D8DDE0",
"ZX c #DEE2E5",
"no c #E1E6E8",
"lX c #DEE5E8",
"R  c #E1E6E9",
"d. c #DBEDED",
"Po c #E4EAEC",
"Io c #E4EAED",
"Ao c #E7EEF0",
"1. c #E7EEF1",
"KX c #EDF6F6",
"E  c #EAF2F5",
"g  c #EDF9F9",
"7  c #F0FAFA",
"o  c #EDF6F9",
"L  c #EDF3F9",
"#. c #EDF6FA",
"|o c #F0FAFC",
"@  c #F0F7FB",
"'o c #EDFFFF",
"uX c #F0F7FC",
"J. c #EDF6FC",
"+X c #221F20",
"q  c #FFFFFF",
"XO c #EDF6FF",
".O c #EDEDFF",
"(. c #9B9D9F",
" X c #AAAEB0",
"v. c #B0B0B2",
"wX c #BE1D2D",
"Zo c #B3B4B7",
";X c #B9B9BB",
"}  c #B6B8BB",
"Y. c #BCBDC0",
"/X c #BFC1C3",
"b. c #C2C2C4",
"3o c #BFC1C4",
"u. c #C5C6C7",
"|  c #C5C6C8",
"yo c #C5C6C9",
"Jo c #C8CACC",
"{. c #CECFD1",
"Ko c #CECFD2",
"!o c #CED2D4",
"/  c #D1D3D5",
"@. c #D1D3D6",
"@o c #D1D6D9",
/* pixels */
"                                                    . X o O + O @ # $ % & *                                                     ",
"                                            = - ; : > , , , , , , < , , , 1 + 2 3 4                                             ",
"                                      . 5 6 > , , , , , , , , , , , , , , , , , , < 1 7                                         ",
"                                  8 # 9 , , , , , , , , , , , , , , , , , , , , , , , , < 0 q                                   ",
"                              w e , , , , , , , , , , , , , , , , , , , , , , , , , , , , , O :                                 ",
"                            @ < , , , , , , , , , , , , , , , , , , , , , , , , , , , , , , , , > r                             ",
"                        t < , , , , , , , , , , , , , , , , , , , , , , , , , , , , , , , , , , , y @                           ",
"                      u # , , , , , , , , , , , , , , , , , , , , , , , , , , , , , , , , , , , , , , i                         ",
"                    p < , , , , , , , , , , , , , , , , , , , , , , , , , , , , , , , , , , , , , , , , a 4                     ",
"                  s < , , , , , , , , , , , , , , , , , , , , , , , , , , , , < d f < , , , , , , , , , , > q                   ",
"                g a , , , , , , , , , , , , , , , , , , , , , , , , , , , h j k l z x , , , , , , , , , , , h c                 ",
"              v y , , , , , , , , , , , , , , , , , , , , , , , , , , , d b n m M N B , , , , , , , , , , , , 9                 ",
"            q < , , , , , , , , , , , , , , , , , , , , , , , , , , 6 V C Z m m m A S , , , , , , , , , , , , , D               ",
"            : , , , , , , 6 , , , 6 6 , , , , , , , 6 , < a a < , a F G H m m m m J K , , , , , , , , , , , , , y L             ",
"          P 6 , , , , , , B I U Y T R E , 6 , < < W Q ! ~ ^ ^ / ( ) k _ ` M m m M ' - , , , , , , , , , , , , , , < q           ",
"        t > , , , , , , , ] [ M M { } | (  .o ..X.k ^ ^ ^ ^ ^ ^ ^ ^ ^ o.l O.H m +.@., , , , , , , , , , , , , , , , #.          ",
"        i , , , , , , , , $.%.m m m m M H &.^ k ^ ^ ^ ^ ^ ^ ^ ^ ^ ^ ^ ^ ^ C m m %.*.6 , , , , , , , , , , , , , , , =.-.        ",
"      ;.< , , , , , , , , < :.m m M >.{ ,.<.^ ^ ^ ^ ^ ^ ^ ^ ^ ^ ^ ^ ^ ^ ^ ^ | } z 1., , , , , , , , , , , , , , , , , 2.        ",
"      9 , , , , , , , , , 6 3.m M 4.5.k k ^ ^ ^ ^ ^ ^ ^ ^ ^ ^ ^ ^ ^ ^ ^ ^ ^ k ^ 6.6 , , , , , , , , , , , , , , , , , a -.      ",
"    t O , , , , , , , , , , 7.8.m >.^ ^ ^ ^ ^ ^ ^ ^ ^ ^ ^ ^ ^ ^ ^ ^ ^ ^ ^ ^ ^ ^ 9., , , , , , , , , , , , , , , , , , , +       ",
"    , , , , , , , , , , , , 0.5.{ C ^ ^ ^ ^ ^ ^ ^ ^ ^ ^ ^ ^ ^ ^ k ^ q.w.w.e.k ^ k 0., , , , , , , , , , , , , , , , , , y q     ",
"    a , , , , , , , , , , , 6 T C ^ ^ ^ ^ ^ ^ ^ ^ ^ ^ ^ ^ ^ ^ k r.t.y.u.i.p.a.^ ^ .., , , , , , , , , , , , , , , , , , , s.    ",
"  d.h , , , , , , , , , , , , x f.^ ^ ^ ^ ^ k ^ g.h.j.^ ^ ^ ^ ^ ^ k ^ ^ ^ k k ^ ^ k.6 , , , , , , , , , , , , , , , , , , O     ",
"  l., , , , , , , , , , , , , , F ^ ^ ^ k z.x.c.v.b.5.^ ^ k k ^ ^ ^ ^ ^ ^ ^ ^ ^ ^ n., , , , , , , , , , , , , , , , , , , 6     ",
"  m., , , , , , , , , , , , , , M.^ ^ ^ N.B.o.k ^ ^ ^ ^ z V.C.^ ^ ^ ^ ^ ^ ^ ^ ^ ^ X., , , , , , , , , , , , , , , , , , , , Z.  ",
"  < , , , , , , , , , , , , , , A.k ^ ^ S.<.^ ^ ^ ^ ^ ^ z D.F.k ^ ^ ^ ^ ^ ^ ^ ^ ^ X., , , , , , , , , , , , , , , , G.H., , J.  ",
"* # , , , , , , , , , , , , , , , 9.^ ^ ^ ^ ^ ^ ^ ^ ^ ^ ^ z K.L.P.^ ^ ^ ^ ^ ^ z k I., , , , , , , , , , , , , , , B U.Y.E , +   ",
"T., , , , , , , , , , , , , , , , R.^ ^ ^ ^ ^ ^ ^ ^ ^ ^ E.W.Q.!.~.^ ^ ^ ^ ^ ^ ^./.(.).0.< , , , , , , , , , , , , H.U.Y._., >   ",
"`., , , , , , , , , , , , , , , , W k ^ ^ ^ ^ ^ ^ ^ ^ ^ '.].].].[.o.^ ^ ^ ^ ^ {.z }.|. X.X, , , , , , , , , , , , a Y.Y.XX, 2.  ",
"oX, , , , , , , , , , , , , , , , h OX^ ^ ^ ^ ^ ^ ^ ^ ^ t.].+X@X#X$X^ ^ ^ ^ ^ 5.%X&X, < 2.> , , , , , , , , , , , , *XY.=X, 2.  ",
"-X, , , , , , , , , , , , , , , , < I k ;Xb.^ ^ ^ ^ ^ ^ :X>X,X<X1Xj.^ ^ ^ ^ ^ y.2X3X4X6 , , , , , , , , , , , , , , *XY.=X, O   ",
"5X, , , , , , , , , , , , , , < 6X7X8X9X0XC ^ ^ ^ ^ ^ ^ ^ qXwXeXrX/ ^ ^ ^ ^ k tXH < yXh , , , , , , , , , , , , , m.Y.Y.XX, <   ",
"uX, , , , , , , , , , , , , , < E iXpXaXsXdX^ ^ ^ ^ ^ ^ ^ fXgXeXhX^ ^ ^ ^ k jX<.L.kX=., , , , , , , , , , , , , , H.U.U.lX, a   ",
"o , , , , , , , , , , , , , , , , zXC xXcXvXk ^ ^ ^ ^ ^ ^ bXnXmXMX^ ^ k o.NXBX^ ^ VX6 , , , , , , , , , , , , , , CXY.U.x , :   ",
"#., , , , , , , , , , , , , , , , ZXAXz.SXDXe.FXk ^ ^ ^ ^ ^ ^ bXk ^ <.GXm HX^ ^ ^ k B , , , , , , , , , , , , , < JXY.:., , <   ",
"KX, , , , , , , , , , , , , , , < LXk PXIX<.UXYXTXj.5.RXU z.EXWXGXH M { N ^ ^ ^ ^ ^ QX, , , , , , , , , , , , , !XU.Y.~X< , ,   ",
"^X9 , , , , , , , , , , , , , , 1.k ^ ^ bX^ z /X(XM M M M M M M M UXJ C ^ ^ ^ ^ ^ ^ )X6 - 0.< , < , , , , , , a _XY.BX`X, , :   ",
"  : , , , , , , , , , , , , , , 'X^ ^ ^ ^ ^ ^ ]X^ RX' O.U.J [X' {X^ k ^ ^ ^ ^ ^ ^ ^ ^ }X|XU.BX o.oE < < , < o XoY.Y.oo, , , -   ",
"  < , , , , , , , , , , , , , 6 *.^ ^ ^ ^ ^ ^ ^ ^ ^ ^ ^ ^ {.Ooj.^ ^ ^ ^ ^ ^ ^ ^ ^ ^ ^ N Y.Y.Y.Y.Y.Y.+oookX@o&.Y.Y.#oh , , < $o  ",
"  , , , , , , , , , , , , , , 6 QX^ ^ ^ ^ ^ ^ ^ ^ ^ ^ ^ k %o&o<.^ ^ ^ ^ ^ ^ ^ ^ ^ ^ ^ *o=o-ooo_XU.Y.Y.Y.Y.Y.Y.U.;o- , , , 2.:o  ",
"  >o< , , , , , , , , , , , , < T ^ ^ ^ ^ ^ ^ ^ ^ ^ ^ ^ k ,oRXz ^ ^ ^ ^ ^ ^ ^ ^ ^ ^ ^ <o, , , , H.~X1o2oBX3o4o5o< , , , , 6o    ",
"    > , , , , , , , , , , , , , 7o^ ^ k ^ ^ ^ ^ ^ ^ ^ ^ ^ 8o9o0o^ ^ ^ ^ ^ ^ ^ k k ^ ^ .., , , , , < , 6 h , < , , , , , , qo    ",
"    wo, , , , , , , , , , , , , VX^ k eo]X^ ^ ^ ^ ^ ^ ^ ^ ^ z ^ ^ ^ ^ ^ ^ ^ ^ {.| ^ ^  ., , , , , , , , , , , , , , , , < ro    ",
"    to1 , , , , , , , , , , , , n.^ k &.^ ^ ^ ^ ^ ^ ^ ^ ^ k ^ ^ ^ ^ ^ ^ ^ ^ ^ z yo^ ^ uo, , , , , , , , , , , , , , , , m.      ",
"      io, , , , , , , , , , , , po^ ^ ao^ ^ ^ ^ ^ ^ ^ ^ ^ so5.^ ^ ^ ^ ^ ^ ^ ^ {.do^ ^ uo, , , , , , , , , , , , , , , , fo      ",
"      go2., , , , , , , , , , , 9.^ ^ ho^ ^ ^ ^ ^ ^ ^ ^ ^ (Xjo^ ^ ^ ^ ^ ^ ^ ^ z.5.^ ^ ko, , , , , , , , , , , , , , , 6         ",
"        + , , , , , , , , , , 6 lo^ ^ zok ^ ^ ^ ^ ^ ^ ^ ^ YXxof.^ ^ ^ ^ ^ ^ ^ yo{.^ bXco, , , , , , , , , , , , , , < vo        ",
"        bo2., , , , , , , , , , no^ ^ C C ^ ^ ^ ^ ^ ^ ^ k +.} ^ ^ ^ ^ ^ ^ ^ ^ mo^ ^ k $., , , , , , , , , , , , , , #           ",
"          Mo< , , , , , , , , , Nof.^ ^ o.^ ^ ^ ^ ^ ^ ^ k m 8.^ ^ ^ ^ ^ ^ ^ Bo:Xk ^ n., , , , , , , , , , , , , , 1 Vo          ",
"            h , , , , , , , , , , Co^ ^ o.k ^ ^ ^ ^ ^ ^ z M Zo^ ^ ^ ^ ^ ^ ^ RX^.^ ]XAo, , , , , , , , , , , , , , v             ",
"            So# , , , , , , , , , a VX^ DoFo^ ^ ^ ^ ^ ^ GoM ,.^ ^ ^ ^ ^ ^ ^ :X^ ]Xno, , , , , , , , , , , , , , O               ",
"              Ho=., , , , , , , , , E / ^ Jok ^ ^ ^ ^ ^ KoM ,.^ ^ ^ ^ ^ ^ 5.z.k 7., , , , , , , , , , , , , , >                 ",
"                i h , , , , , , , , , Lon.k hoz ^ ^ ^ ^ {.M ,.^ ^ ^ ^ ^ o.zoOXPo, , , , , , , , , , , , , , O t                 ",
"                  6 < , , , , , , , , , 2.E IoUoYok k k C To} k k ^ z RoEoB < , , , , , , , , , , , , , , < to                  ",
"                    i < , , , , , , , , , , , < zXWoQo!o~ozX^o/o(o4X)o< , , , , , , , , , , , , , , , , > q                     ",
"                      _oio, , , , , , , , , , , , , < , < , , < < < , , , , , , , , , , , , , , , , < `oq                       ",
"                        'o> , , , , , , , , , , , , , , , , , , , , , , , , , , , , , , , , , , , O o                           ",
"                            wo=., , , , , , , , , , , , , , , , , , , , , , , , , , , , , , , , > ]o                            ",
"                              [o{o9 , , , , , , , , , , , , , , , , , , , , , , , , , , , , < ,                                 ",
"                                  }o9 6 , , , , , , , , , , , , , , , , , , , , , , , < O |oq                                   ",
"                                       Oy # , , , , , , , , , , , , , , , , , , , < , 6oc                                       ",
"                                            L #.h =., , , , , , , , , , , > # 9 , .O                                            ",
"                                                  q XO@ $ i 2.: 9 `ooOOO+O@O                                                    ",
"                                                                                                                                "
};
